PathFileType	4	(X/Y/Z)	C:/Users/opensim2020/Desktop/walking_exp_matlab/subject02_walking13_straight_04.trc																																																																																																																									
DataRate	CameraRate	NumFrames	NumMarkers	Units	OrigDataRate	OrigDataStartFrame	OrigNumFrames																																																																																																																					
100	100	8	41	mm	100	1795	118																																																																																																																					
Frame#	Time	LFHD			RFHD			LBHD			RBHD			C7			T10			CLAV			STRN			RBAK			LSHO			LUPA			LELB			LFRM			LWRA			LWRB			LFIN			RSHO			RUPA			RELB			RFRM			RWRA			RWRB			RFIN			LASI			RASI			LPSI			RPSI			LTHI			LKNE			LTIB			LANK			LHEE			LTOE			RTHI			RKNE			RTIB			RANK			RHEE			RTOE			*39			*40		
		X1	Y1	Z1	X2	Y2	Z2	X3	Y3	Z3	X4	Y4	Z4	X5	Y5	Z5	X6	Y6	Z6	X7	Y7	Z7	X8	Y8	Z8	X9	Y9	Z9	X10	Y10	Z10	X11	Y11	Z11	X12	Y12	Z12	X13	Y13	Z13	X14	Y14	Z14	X15	Y15	Z15	X16	Y16	Z16	X17	Y17	Z17	X18	Y18	Z18	X19	Y19	Z19	X20	Y20	Z20	X21	Y21	Z21	X22	Y22	Z22	X23	Y23	Z23	X24	Y24	Z24	X25	Y25	Z25	X26	Y26	Z26	X27	Y27	Z27	X28	Y28	Z28	X29	Y29	Z29	X30	Y30	Z30	X31	Y31	Z31	X32	Y32	Z32	X33	Y33	Z33	X34	Y34	Z34	X35	Y35	Z35	X36	Y36	Z36	X37	Y37	Z37	X38	Y38	Z38	X39	Y39	Z39	X40	Y40	Z40	X41	Y41	Z41
																																																																																																																												
60	0.59	-40.44363	1692.80859	-1446.29321	-66.72593	1666.10229	-1306.9541	-176.82332	1638.57861	-1480.2572	-214.84541	1612.36523	-1343.77612	-258.23566	1486.31506	-1415.72559	-293.97244	1204.85144	-1415.91016	-116.04669	1424.37634	-1426.59778	-52.71717	1258.19153	-1430.89429	-308.38126	1300.49548	-1364.76611	-188.48267	1477.30396	-1590.11328	-151.23264	1310.64954	-1713.49365	-91.14928	1193.94617	-1771.99475	26.37251	1133.77954	-1801.50146	162.73595	1121.80408	-1780.69495	138.54941	1082.10144	-1813.30151	205.88556	1072.75269	-1818.88672	-189.46227	1442.14551	-1230.65674	-258.1308	1260.48572	-1162.98462	-277.47366	1116.77661	-1151.26196	-287.58966	999.14825	-1126.49219	-274.9386	863.16278	-1133.49731	-326.84106	874.96747	-1115.32166	-311.61548	804.41791	-1103.55554	-82.03149	947.90491	-1580.12964	-35.52391	947.99609	-1328.91968	-273.16788	992.29095	-1460.08887	-259.81958	993.77869	-1346.93433	-228.66937	654.81531	-1623.17407	-307.32214	473.60974	-1599.70923	-456.83319	348.36786	-1590.66821	-572.98804	153.10576	-1563.39783	-606.27826	149.91304	-1508.49353	-467.1947	32.93456	-1576.70374	-18.70125	659.07166	-1241.79822	47.4529	465.18835	-1294.22095	53.64631	277.21179	-1287.31128	68.88634	85.27673	-1325.38232	35.01893	35.54512	-1378.56689	224.77438	39.49561	-1328.14844	-145.94263	1767.34961	-1367.65442	-2845.4436	1034.11719	3360.44995
61	0.6	-27.17912	1693.71057	-1444.76746	-53.51972	1666.98523	-1305.47546	-163.83563	1639.86157	-1479.10754	-201.614	1613.56775	-1342.2323	-244.86014	1487.33801	-1414.18152	-279.12927	1205.04895	-1414.95166	-102.88776	1425.96362	-1425.06201	-38.1361	1260.22827	-1429.20557	-294.40976	1300.61987	-1363.49854	-175.91481	1478.18628	-1589.30994	-139.7392	1310.29871	-1711.74597	-80.48051	1193.16223	-1770.13318	37.43027	1133.03149	-1798.39331	173.31233	1121.80933	-1776.72461	150.04488	1081.63672	-1809.23059	217.62816	1072.73584	-1813.77271	-176.52223	1442.71497	-1229.15515	-243.72218	1260.26831	-1161.60718	-262.69592	1116.62744	-1150.56006	-272.8226	999.30676	-1125.58911	-259.867	863.09509	-1132.28003	-311.6857	875.08942	-1114.29431	-296.68741	804.5979	-1102.72131	-64.82448	948.25964	-1576.5343	-19.77954	949.46967	-1326.82019	-256.69736	993.12897	-1459.74109	-243.63499	996.31097	-1345.27588	-209.27255	654.48126	-1622.79907	-284.77618	473.66354	-1601.79797	-437.80179	353.93265	-1590.07642	-559.96497	162.7542	-1564.02661	-590.93585	161.55688	-1507.84851	-466.22403	33.25175	-1576.70605	-8.29413	658.11426	-1241.85168	63.81488	467.07999	-1296.31641	66.06972	278.83704	-1288.17041	71.16205	88.18492	-1326.7063	35.97705	36.18972	-1378.76135	227.61993	38.06203	-1330.68347	-132.53545	1768.53027	-1366.1781	-2845.20435	1034.17017	3360.27734
62	0.61	-13.86563	1694.58362	-1443.09949	-40.44707	1668.00745	-1304.00842	-150.72273	1641.12439	-1477.69714	-188.55606	1614.8645	-1340.84094	-231.50276	1488.58276	-1412.84766	-264.73926	1205.58484	-1414.09741	-89.71553	1427.6897	-1423.6864	-23.60459	1262.38013	-1427.55334	-280.32104	1301.0293	-1362.00049	-163.1754	1479.30505	-1588.38208	-128.04327	1310.09814	-1709.69421	-70.06982	1192.2489	-1767.71228	47.85316	1131.84412	-1795.05103	183.72578	1120.38916	-1772.18164	160.61673	1080.20825	-1804.99268	228.43246	1071.43494	-1808.83582	-163.42529	1443.51611	-1227.5824	-229.49646	1260.51538	-1160.4342	-247.49399	1116.8772	-1149.68469	-257.18842	999.45544	-1124.61536	-244.03543	863.44312	-1131.00757	-296.23804	875.25775	-1113.25574	-281.01907	804.5473	-1101.76282	-48.06611	949.18921	-1572.9613	-4.12038	951.24768	-1324.5459	-240.61653	994.19745	-1459.55933	-227.80931	999.0401	-1343.72864	-189.17975	653.73102	-1622.67297	-260.6825	472.86603	-1603.40637	-416.16177	358.57446	-1590.24731	-543.84955	171.63173	-1564.89307	-573.42963	172.99132	-1507.9751	-464.12067	34.09142	-1576.92883	3.72125	657.52551	-1242.64929	78.58359	467.79962	-1297.927	76.95506	279.73792	-1289.74512	75.33708	88.6277	-1326.86584	36.76084	36.608	-1379.18689	229.22862	36.96642	-1330.78003	-119.16492	1769.75366	-1364.73096	-2845.86133	1034.2583	3357.27637
63	0.62	-0.74936	1695.70093	-1441.72913	-27.40512	1669.177	-1302.62842	-137.46027	1642.3877	-1476.08081	-175.53917	1616.22546	-1339.6001	-218.30421	1489.67737	-1411.65222	-250.58327	1206.32947	-1413.16187	-76.5229	1429.34998	-1422.45764	-9.17034	1264.55823	-1426.0127	-266.2251	1301.81445	-1360.83545	-150.34792	1480.61426	-1587.33667	-116.55379	1310.31702	-1707.87292	-59.98601	1191.36792	-1765.14539	57.72588	1130.2345	-1791.54065	193.1535	1118.28796	-1768.047	170.40027	1077.94458	-1800.71973	238.19273	1068.72131	-1803.79956	-150.90443	1444.85254	-1226.72388	-215.2403	1261.1554	-1159.2439	-231.90486	1117.40222	-1148.78735	-241.06281	1000.1958	-1123.62561	-227.19699	864.09723	-1129.85181	-279.29272	875.64417	-1112.09875	-264.20035	804.89197	-1100.78125	-31.86009	950.12726	-1568.84106	11.37025	953.18732	-1322.17126	-225.17619	995.50195	-1459.25146	-212.27634	1001.55151	-1342.50037	-168.67389	652.39819	-1622.40271	-235.71309	471.41205	-1604.9635	-392.61362	361.85184	-1590.93518	-525.49921	180.07822	-1566.48779	-554.24646	183.94617	-1508.87524	-459.53278	35.1753	-1576.70605	17.78401	658.04272	-1244.16101	91.45686	467.84644	-1299.0647	84.14864	280.28244	-1290.18091	76.51196	87.99313	-1327.69141	37.00386	36.75799	-1379.61926	229.9895	36.32551	-1330.99768	-105.84207	1770.94421	-1363.22913	-2845.2749	1034.20496	3360.32715
64	0.63	12.36601	1697.22839	-1440.2948	-14.45078	1670.49146	-1301.2356	-124.55963	1644.07129	-1475.21277	-162.53822	1617.7157	-1338.34314	-205.33743	1490.69995	-1410.66724	-236.62094	1207.42236	-1412.2373	-63.2658	1431.00293	-1421.41516	5.00811	1266.71375	-1424.67249	-252.24977	1302.70776	-1359.90076	-137.1315	1481.94751	-1585.97351	-105.39155	1310.85217	-1706.19189	-50.24894	1190.52576	-1762.39441	67.0151	1128.14417	-1788.00208	202.23282	1115.00879	-1763.60742	179.62308	1074.62354	-1796.12939	247.10182	1064.85107	-1798.90759	-138.43715	1446.40955	-1225.97595	-200.83202	1262.24084	-1158.09155	-216.12794	1118.27991	-1147.74609	-224.04538	1000.80847	-1122.76038	-209.70074	865.00623	-1128.6781	-261.3826	876.32709	-1110.44067	-246.39819	805.36798	-1099.78748	-16.20676	951.21765	-1565.13159	26.49619	955.41986	-1319.83472	-210.22433	996.86304	-1458.85449	-197.33528	1003.68079	-1341.44312	-147.77559	650.44696	-1622.10388	-210.0083	469.62192	-1606.61914	-367.48691	363.70996	-1592.14111	-504.94714	187.63458	-1567.92664	-533.2287	194.82086	-1509.51965	-451.91324	38.9653	-1576.41614	33.99708	659.69385	-1245.0813	102.39915	467.53027	-1299.99976	88.09949	279.91479	-1290.53064	77.47007	88.3233	-1328.03479	37.08778	36.86586	-1379.76147	230.74438	36.05132	-1331.74438	-92.89444	1772.4082	-1361.93018	-2845.95288	1034.35461	3357.45752
65	0.64	25.53259	1699.04419	-1438.90613	-1.45791	1671.97754	-1299.69543	-111.40638	1646.01575	-1474.12793	-149.58734	1619.47302	-1337.39258	-192.58618	1491.93921	-1409.90259	-222.98465	1208.93872	-1411.28357	-50.04655	1432.80652	-1420.59534	18.28438	1268.68774	-1423.60718	-237.92862	1303.62097	-1358.74792	-124.59127	1483.59644	-1585.26648	-93.78694	1310.98218	-1704.10254	-40.75352	1189.65442	-1759.5719	76.01136	1125.74194	-1784.49988	211.08191	1110.60742	-1758.90808	187.77197	1070.95947	-1792.07703	255.2838	1059.71582	-1793.99487	-125.81068	1448.16821	-1225.23401	-186.71738	1263.44263	-1157.28137	-200.12643	1119.29724	-1146.74292	-207.25038	1002.16583	-1122.00293	-191.03494	865.7392	-1127.31738	-243.18994	876.98846	-1109.26526	-227.64537	805.95581	-1098.79028	-0.95074	952.30402	-1561.80518	41.06358	957.75751	-1317.54407	-195.74554	998.31616	-1458.33545	-182.96326	1005.40234	-1340.58008	-126.41348	648.11316	-1621.69165	-183.53714	467.7193	-1608.39734	-341.4512	364.68961	-1594.38074	-484.20093	195.74591	-1568.45386	-511.12054	205.04613	-1508.89856	-440.21692	43.3986	-1577.68835	49.98398	662.14362	-1245.12231	110.90777	466.83417	-1300.35767	90.47578	279.24387	-1291.23193	78.15517	88.27668	-1328.203	37.24443	37.03724	-1379.90588	230.89836	35.90282	-1331.66162	-79.98086	1774.18347	-1360.69312	-2845.9209	1034.36035	3357.36768
66	0.65	38.57401	1701.26221	-1437.82043	11.35678	1673.84082	-1298.60071	-97.99741	1648.15259	-1472.8501	-136.58928	1621.45959	-1336.50098	-179.84007	1493.67676	-1409.22974	-209.2417	1210.71252	-1409.97791	-37.08273	1434.86707	-1419.88965	31.61111	1270.92566	-1422.86816	-224.40201	1305.15076	-1358.28833	-111.89851	1485.28992	-1584.5863	-82.87049	1311.34863	-1702.47119	-31.51237	1188.75916	-1756.6908	84.26689	1122.68567	-1780.73047	218.97386	1105.62695	-1754.58972	195.52522	1066.19592	-1787.69275	262.62039	1053.65784	-1789.21399	-113.39907	1450.17676	-1224.7301	-172.40591	1265.04065	-1156.59363	-183.83907	1120.42114	-1145.61853	-189.39461	1003.28473	-1120.89063	-172.13983	867.27155	-1126.54248	-224.05016	877.89728	-1107.99634	-208.09352	806.90656	-1097.70923	13.70338	953.43304	-1559.17358	55.1105	960.02692	-1315.48499	-181.79849	1000.0105	-1457.71716	-168.90553	1007.01013	-1339.90356	-104.80305	646.2038	-1621.69543	-156.89687	466.2355	-1610.47791	-314.84247	365.43649	-1597.2511	-462.70636	203.42943	-1567.46423	-487.77466	213.25229	-1507.39844	-424.00009	50.7803	-1582.91736	65.71737	664.18066	-1244.48303	117.37273	466.15961	-1300.06921	92.40767	278.90051	-1291.78467	78.39312	88.45436	-1328.22156	37.23066	37.32238	-1379.90161	231.1869	35.8703	-1332.08923	-66.96017	1776.12402	-1359.3811	-2845.82446	1034.31982	3357.32642
67	0.66	51.71849	1703.49341	-1436.52588	24.25383	1675.73523	-1297.42847	-84.99225	1650.73474	-1472.28076	-123.68027	1623.6405	-1335.79346	-166.84227	1495.92493	-1408.61853	-195.34444	1212.54529	-1408.41431	-24.28221	1437.22522	-1419.39429	44.76957	1273.2417	-1422.3822	-211.22644	1307.15063	-1357.88318	-99.2193	1486.93457	-1583.9574	-71.82838	1311.35181	-1700.37244	-22.535	1187.79321	-1753.61426	91.91928	1119.41248	-1777.21362	226.72491	1099.43701	-1749.90894	202.21899	1061.18933	-1783.87219	269.07629	1046.75623	-1784.85486	-100.4249	1452.42651	-1224.13477	-158.18529	1266.6427	-1156.05078	-167.57095	1122.18323	-1144.45081	-171.31656	1004.59918	-1119.74597	-152.52646	868.91351	-1125.73376	-204.38091	878.90082	-1106.76611	-187.51736	808.11859	-1096.70557	27.56904	954.75226	-1557.25	68.78323	962.3092	-1313.82446	-168.22159	1001.9458	-1456.97009	-155.35912	1008.64502	-1339.33459	-82.95946	645.45209	-1621.75708	-129.90121	465.31906	-1612.44153	-288.15424	366.65714	-1600.12769	-440.06839	210.929	-1565.29626	-464.34677	218.95522	-1504.48596	-402.91644	58.65748	-1587.22717	80.07088	666.73499	-1244.33997	122.57374	465.63611	-1299.42175	94.76926	278.76965	-1291.87183	78.52721	88.79322	-1328.52283	37.12684	37.3076	-1379.97974	231.2695	36.05479	-1331.98901	-53.74284	1778.23523	-1358.06445	-2845.84595	1034.37537	3357.27905
